<svg width="61" height="60" viewBox="0 0 61 60" fill="none" xmlns="http://www.w3.org/2000/svg">
<rect x="1" y="0.5" width="59" height="59" rx="29.5" stroke="#E7E7E7"/>
<path d="M27.1667 34.0203C32.5891 34.0203 37.1667 34.9125 37.1667 38.3583C37.1667 41.8042 32.5597 42.6667 27.1667 42.6667C21.7443 42.6667 17.1667 41.7731 17.1667 38.3286C17.1667 34.8827 21.7723 34.0203 27.1667 34.0203ZM39.832 24C40.4936 24 41.0306 24.5459 41.0306 25.2155V26.7838H42.6347C43.295 26.7838 43.8334 27.3298 43.8334 27.9993C43.8334 28.6689 43.295 29.2148 42.6347 29.2148H41.0306V30.7845C41.0306 31.4541 40.4936 32 39.832 32C39.1717 32 38.6334 31.4541 38.6334 30.7845V29.2148H37.032C36.3703 29.2148 35.8334 28.6689 35.8334 27.9993C35.8334 27.3298 36.3703 26.7838 37.032 26.7838H38.6334V25.2155C38.6334 24.5459 39.1717 24 39.832 24ZM27.1667 17.3333C30.8394 17.3333 33.7835 20.3155 33.7835 24.0358C33.7835 27.7561 30.8394 30.7383 27.1667 30.7383C23.4939 30.7383 20.5498 27.7561 20.5498 24.0358C20.5498 20.3155 23.4939 17.3333 27.1667 17.3333Z" fill="black"/>
</svg>
