<svg width="22" height="21" viewBox="0 0 22 21" fill="none" xmlns="http://www.w3.org/2000/svg">
<path d="M20.0316 7.52656V3.71367C20.0316 2.52949 19.4627 2.05078 18.0493 2.05078H14.4582C13.0449 2.05078 12.476 2.52949 12.476 3.71367V7.51816C12.476 8.71074 13.0449 9.18105 14.4582 9.18105H18.0493C19.4627 9.18945 20.0316 8.71074 20.0316 7.52656Z" fill="white"/>
<path d="M20.0316 16.9748V13.5818C20.0316 12.2465 19.4627 11.709 18.0493 11.709H14.4582C13.0449 11.709 12.476 12.2465 12.476 13.5818V16.9748C12.476 18.3102 13.0449 18.8477 14.4582 18.8477H18.0493C19.4627 18.8477 20.0316 18.3102 20.0316 16.9748Z" fill="white"/>
<path d="M9.80932 7.52656V3.71367C9.80932 2.52949 9.24044 2.05078 7.8271 2.05078H4.23599C2.82266 2.05078 2.25377 2.52949 2.25377 3.71367V7.51816C2.25377 8.71074 2.82266 9.18105 4.23599 9.18105H7.8271C9.24044 9.18945 9.80932 8.71074 9.80932 7.52656Z" fill="white"/>
<path d="M9.80932 16.9748V13.5818C9.80932 12.2465 9.24044 11.709 7.8271 11.709H4.23599C2.82266 11.709 2.25377 12.2465 2.25377 13.5818V16.9748C2.25377 18.3102 2.82266 18.8477 4.23599 18.8477H7.8271C9.24044 18.8477 9.80932 18.3102 9.80932 16.9748Z" fill="white"/>
</svg>
